HIERARCHY
ROOT Hips
{
	OFFSET 0.00 0.00 0.00
	CHANNELS 6 Xposition Yposition Zposition Xrotation Yrotation Zrotation
	JOINT Spine
	{
		OFFSET 0.00000 7.53995 0.00000
		CHANNELS 3 Xrotation Yrotation Zrotation
		JOINT Head
		{
			OFFSET 0.00000 15.09381 0.00000
			CHANNELS 3 Xrotation Yrotation Zrotation
			End Site
			{
				OFFSET 0.00000 4.52755 0.00000
			}
		}
		JOINT LeftShoulder
		{
			OFFSET 0.00000 9.73893 0.00000
			CHANNELS 3 Xrotation Yrotation Zrotation
			JOINT LeftArm
			{
				OFFSET 7.08401 0.00000 0.00000
				CHANNELS 3 Xrotation Yrotation Zrotation
				JOINT LeftForeArm
				{
					OFFSET 10.25932 0.00000 0.00000
					CHANNELS 3 Yrotation Zrotation Xrotation
					JOINT LeftHand
					{
						OFFSET 9.89698 0.00000 0.00000
						CHANNELS 3 Xrotation Yrotation Zrotation
						JOINT LeftHandThumb1
						{
							OFFSET 0.00000 0.00000 0.00000
							CHANNELS 3 Xrotation Zrotation Yrotation
							End Site
							{
								OFFSET 0.00000 0.00000 3.93700
							}
						}
						End Site
						{
							OFFSET 3.93700 0.00000 0.00000
						}
					}
				}
			}
		}
		JOINT RightShoulder
		{
			OFFSET 0.00000 9.73893 0.00000
			CHANNELS 3 Xrotation Yrotation Zrotation
			JOINT RightArm
			{
				OFFSET -7.08401 0.00000 0.00000
				CHANNELS 3 Xrotation Yrotation Zrotation
				JOINT RightForeArm
				{
					OFFSET -10.25932 0.00000 0.00000
					CHANNELS 3 Yrotation Zrotation Xrotation
					JOINT RightHand
					{
						OFFSET -9.89698 0.00000 0.00000
						CHANNELS 3 Xrotation Yrotation Zrotation
						JOINT RightHandThumb1
						{
							OFFSET 0.00000 0.00000 0.00000
							CHANNELS 3 Xrotation Zrotation Yrotation
							End Site
							{
								OFFSET 0.00000 0.00000 3.93700
							}
						}
						End Site
						{
							OFFSET -3.93700 0.00000 0.00000
						}
					}
				}
			}
		}
	}
	JOINT LeftUpLeg
	{
		OFFSET 3.34548 0.00000 0.00000
		CHANNELS 3 Xrotation Yrotation Zrotation
		JOINT LeftLeg
		{
			OFFSET 0.00000 -19.11473 0.00000
			CHANNELS 3 Xrotation Yrotation Zrotation
			JOINT LeftFoot
			{
				OFFSET 0.00000 -16.04560 0.00000
				CHANNELS 3 Xrotation Yrotation Zrotation
				JOINT LeftToeBase
				{
					OFFSET 0.00000 -1.43467 5.35428
					CHANNELS 3 Xrotation Yrotation Zrotation
					End Site
					{
						OFFSET 0.00000 0.00000 2.95275
					}
				}
			}
		}
	}
	JOINT RightUpLeg
	{
		OFFSET -3.34548 0.00000 0.00000
		CHANNELS 3 Xrotation Yrotation Zrotation
		JOINT RightLeg
		{
			OFFSET 0.00000 -19.11473 0.00000
			CHANNELS 3 Xrotation Yrotation Zrotation
			JOINT RightFoot
			{
				OFFSET 0.00000 -16.04560 0.00000
				CHANNELS 3 Xrotation Yrotation Zrotation
				JOINT RightToeBase
				{
					OFFSET 0.00000 -1.43467 5.35428
					CHANNELS 3 Xrotation Yrotation Zrotation
					End Site
					{
						OFFSET 0.00000 0.00000 2.95275
					}
				}
			}
		}
	}
}
MOTION
Frames:	7
Frame Time: 0.008333
-0.7766 36.9731 1.6770 7.9369 7.9918 1.8160 -6.3599 -8.9224 -1.5211 -0.2808 -0.7015 -1.7524 3.3684 11.3721 16.5628 -31.4455 11.6410 -25.9267 -22.2486 -0.0000 -179.4690 -0.2853 -3.5007 -4.6622 32.8623 0.0000 24.3270 -12.0142 -6.7448 -17.3066 -10.2648 -10.8198 22.0985 23.1708 -0.0000 17.3296 -2.4143 -17.1735 -8.1267 33.1476 -0.0000 -26.2537 -11.1994 13.4157 0.9967 19.4222 -0.0000 -0.0000 -14.2168 9.3704 -1.2502 0.5131 -0.0000 -0.0000 -4.7399 -13.3014 -6.6889 6.9230 -0.0000 -0.0000 -16.2467 -11.9282 13.9673 14.2918 -0.0000 -0.0000
-0.7811 36.9652 1.6306 7.8210 8.8556 1.7233 -6.0562 -9.2696 -1.4660 -0.5649 -0.9146 -1.7897 3.4825 11.1410 16.3559 -31.1836 11.0856 -26.4652 -22.5457 -0.0000 -179.1731 -0.2734 -3.4306 -4.5590 32.8623 0.0000 24.3270 -11.9352 -6.6439 -17.2864 -10.7312 -12.4420 22.3565 24.5098 0.0000 15.4224 -2.7520 -16.4378 -9.6406 33.1476 -0.0000 -26.2537 -11.7124 13.4913 0.9074 20.3443 -0.0000 -0.0000 -14.3656 9.6027 -0.6899 0.6013 -0.0000 -0.0000 -4.5771 -13.6526 -6.6252 6.9497 -0.0000 -0.0000 -16.3628 -12.3601 13.8964 14.3508 -0.0000 -0.0000
-0.7751 36.9576 1.5921 7.7438 9.7382 1.6337 -5.8349 -9.5675 -1.3806 -0.8122 -1.1256 -1.9432 3.7009 10.9388 16.1086 -30.9488 10.3983 -27.0753 -22.8316 -0.0000 -178.7398 -0.2644 -3.3630 -4.4987 32.8623 0.0000 24.3270 -11.8067 -6.7276 -17.2780 -11.1204 -13.6955 22.6467 25.7044 0.0000 12.8210 -3.3926 -16.1866 -12.0055 33.1476 -0.0000 -26.2537 -12.2000 13.5221 0.7597 21.1785 -0.0000 -0.0000 -14.4989 9.9549 -0.1018 0.4381 -0.0000 -0.0000 -4.4294 -13.9687 -6.5806 6.9659 -0.0000 -0.0000 -16.4702 -12.8357 13.8384 14.3835 -0.0000 -0.0000
-0.7686 36.9460 1.5570 7.5821 10.6333 1.5475 -5.4993 -9.8979 -1.2864 -1.0801 -1.3141 -2.0523 3.8979 10.7116 15.8777 -30.6626 9.7098 -27.6498 -23.1186 0.0000 -178.1895 -0.2419 -3.2075 -4.3155 32.8623 0.0000 24.3270 -11.6692 -6.7409 -17.2431 -11.5663 -15.0916 22.8631 26.9340 -0.0000 10.6820 -3.7364 -15.6885 -13.5775 33.1476 -0.0000 -26.2537 -12.5714 13.6432 0.6163 21.9220 -0.0000 -0.0000 -14.6603 10.2836 0.4092 0.3033 -0.0000 -0.0000 -4.1847 -14.2958 -6.5220 6.9799 -0.0000 -0.0000 -16.5945 -13.3007 13.7855 14.3921 -0.0000 -0.0000
-0.7598 36.9349 1.5171 7.4852 11.4405 1.4415 -5.2445 -10.1476 -1.1533 -1.3027 -1.4679 -2.1674 4.1681 10.5420 15.6094 -30.3609 8.8866 -28.2304 -23.3791 0.0000 -177.6553 -0.2184 -3.2057 -3.8995 32.8623 0.0000 24.3270 -11.5367 -6.7578 -17.1931 -11.9751 -16.3642 23.0637 28.0427 -0.0000 8.6275 -4.1112 -15.0720 -15.4517 33.1476 -0.0000 -26.2537 -12.9677 13.8058 0.4744 22.5934 -0.0000 -0.0000 -14.7550 10.7117 0.8658 0.0487 -0.0000 -0.0000 -4.0388 -14.4478 -6.4513 7.0700 -0.0000 -0.0000 -16.7368 -13.8383 13.6996 14.4024 -0.0000 -0.0000
-0.7497 36.9221 1.4762 7.3312 12.3095 1.3202 -4.9138 -10.4342 -0.9743 -1.4808 -1.6904 -2.2768 4.4207 10.2906 15.3280 -30.0111 8.0563 -28.7795 -23.6429 -0.0000 -177.0121 -0.2104 -3.1390 -3.8375 32.8623 0.0000 24.3270 -11.4103 -6.7455 -17.1406 -12.4330 -17.6686 23.2244 29.1535 0.0000 6.4094 -4.2302 -14.1006 -16.8883 33.1476 -0.0000 -26.2537 -13.2744 13.9396 0.3308 23.1697 -0.0000 -0.0000 -14.8836 11.1387 1.1934 0.0266 -0.0000 -0.0000 -3.8044 -14.5908 -6.3431 7.1324 -0.0000 -0.0000 -16.8843 -14.4532 13.5893 14.4332 -0.0000 -0.0000
-0.7338 36.9085 1.4416 7.1837 13.1474 1.2127 -4.6098 -10.6736 -0.8113 -1.6544 -1.8682 -2.3674 4.7406 10.1014 15.0477 -29.6435 7.0979 -29.3460 -23.8851 0.0000 -176.4105 -0.1708 -2.8537 -3.4263 32.8623 0.0000 24.3270 -11.2244 -6.8408 -17.0972 -13.0742 -18.8724 23.4266 30.2244 -0.0000 4.5384 -4.5137 -13.5555 -18.6135 33.1476 -0.0000 -26.2537 -13.5095 14.1142 0.1596 23.6269 -0.0000 -0.0000 -15.0128 11.6447 1.5323 0.0743 -0.0000 -0.0000 -3.5738 -14.6670 -6.2445 7.2158 -0.0000 -0.0000 -17.0257 -15.0326 13.3170 14.2393 -0.0000 -0.0000
